<svg width="62" height="56" viewBox="0 0 62 56" fill="none" xmlns="http://www.w3.org/2000/svg">
<path d="M43.7409 0C40.8623 0 38.1109 0.659911 35.5635 1.96153C33.8295 2.84739 32.2365 4.02439 30.8697 5.42084C29.5027 4.02439 27.9099 2.84739 26.1758 1.96153C23.6283 0.659911 20.8771 0 17.9984 0C8.0741 0 0 8.07411 0 17.9985C0 25.0277 3.71238 32.4934 11.0339 40.1882C17.147 46.6131 24.6313 51.9687 29.8333 55.3303L30.8697 56L31.906 55.3303C37.108 51.9689 44.5923 46.6131 50.7056 40.1882C58.0271 32.4934 61.7393 25.0277 61.7393 17.9985C61.7393 8.07411 53.6652 0 43.7409 0Z" fill="white"/>
</svg>
