<svg width="80" height="48" viewBox="0 0 80 48" fill="none" xmlns="http://www.w3.org/2000/svg">
<path d="M40 32.8889C42.4127 30.7301 43.9365 27.5555 43.9365 24C43.9365 20.4444 42.4127 17.3333 40 15.1111C37.9047 13.2063 35.0476 12 32 12C25.3968 12 20 17.3968 20 24C20 30.6032 25.3968 35.9365 32 35.9365C35.0476 36 37.9047 34.7936 40 32.8889Z" fill="#07A9E2"/>
<path d="M20 24C20 30.6032 25.3968 35.9365 32 35.9365C35.1111 35.9365 37.9047 34.7936 40 32.8254C42.4127 30.6666 43.9365 27.492 43.9365 23.9365C43.9365 20.3809 42.4127 17.3333 40 15.1111C37.9047 13.2063 35.0476 12 32 12" fill="#009DDD"/>
<path d="M39.9999 15.1111C37.9047 13.2063 35.0475 12 31.9999 12C31.8095 12 31.619 12 31.4285 12C27.6825 14.7302 25.2698 19.1111 25.2698 24C25.2698 28.8889 27.6825 33.2698 31.365 35.9365C31.5555 35.9365 31.746 35.9365 31.9364 35.9365C35.0475 35.9365 37.8412 34.7936 39.9364 32.8254C42.3491 30.6666 43.8729 27.492 43.8729 23.9365C43.8729 20.3809 42.4126 17.3333 39.9999 15.1111Z" fill="#0284CC"/>
<path d="M48.0634 12C44.9523 12 42.1586 13.1429 39.9999 15.1111C39.5555 15.4921 39.1745 15.9365 38.7936 16.3809H41.2063C41.5237 16.7619 41.8412 17.2063 42.0952 17.6508H37.8412C37.5872 18.0952 37.3333 18.4762 37.1428 18.9206H42.7936C42.984 19.3651 43.1745 19.746 43.3015 20.1905H36.6983C36.5713 20.6349 36.4444 21.0159 36.3174 21.4603H43.6825C43.8729 22.2857 43.9364 23.1111 43.9364 24C43.9364 25.3333 43.7459 26.6032 43.3015 27.8095H36.6983C36.8253 28.254 37.0158 28.6349 37.2063 29.0793H42.8571C42.6666 29.5238 42.4126 29.9682 42.1586 30.3492H37.9047C38.1587 30.7936 38.4761 31.2381 38.7936 31.619H41.2063C40.8253 32.0635 40.4444 32.5079 39.9999 32.8889C42.1586 34.7936 44.9523 36 48.0634 36C54.6666 36 59.9999 30.6666 59.9999 24.0635C59.9999 17.3968 54.6666 12 48.0634 12Z" fill="#FF2957"/>
<path d="M48.0634 12C44.9523 12 42.1586 13.1429 39.9999 15.1111C39.5555 15.4921 39.1745 15.9365 38.7936 16.3809H41.2063C41.5237 16.7619 41.8412 17.2063 42.0952 17.6508H37.8412C37.5872 18.0952 37.3333 18.4762 37.1428 18.9206H42.7936C42.984 19.3651 43.1745 19.746 43.3015 20.1905H36.6983C36.5713 20.6349 36.4444 21.0159 36.3174 21.4603H43.6825C43.8729 22.2857 43.9364 23.1111 43.9364 24C43.9364 25.3333 43.7459 26.6032 43.3015 27.8095H36.6983C36.8253 28.254 37.0158 28.6349 37.2063 29.0793H42.8571C42.6666 29.5238 42.4126 29.9682 42.1586 30.3492H37.9047C38.1587 30.7936 38.4761 31.2381 38.7936 31.619H41.2063C40.8253 32.0635 40.4444 32.5079 39.9999 32.8889C42.1586 34.7936 44.9523 36 48.0634 36C54.6666 36 59.9999 30.6666 59.9999 24.0635" fill="#ED1C2E"/>
<path d="M40 32.8888C42.4127 30.7301 43.9365 27.5555 43.9365 24C43.9365 20.4444 42.4127 17.3333 40 15.1111V32.8888Z" fill="#0466B5"/>
<path d="M55.8735 26.6031C55.8735 26.4126 56.064 26.2222 56.2545 26.2222C56.445 26.2222 56.6354 26.4126 56.6354 26.6031C56.6354 26.7936 56.445 26.9841 56.2545 26.9841C56.064 26.9841 55.8735 26.7936 55.8735 26.6031ZM56.2545 26.9206C56.445 26.9206 56.5085 26.7936 56.5085 26.6031C56.5085 26.4126 56.3815 26.3492 56.2545 26.3492C56.064 26.3492 55.937 26.4761 55.937 26.6031C55.937 26.7301 56.1275 26.9206 56.2545 26.9206ZM56.2545 26.7301H56.191V26.4126H56.318C56.3815 26.4126 56.3815 26.4126 56.3815 26.4126L56.445 26.4761C56.445 26.5396 56.445 26.5396 56.3815 26.5396L56.445 26.6666H56.3815L56.318 26.5396H56.2545V26.7301ZM56.2545 26.5396C56.318 26.5396 56.318 26.5396 56.318 26.5396C56.318 26.5396 56.318 26.5396 56.318 26.4761H56.2545V26.5396Z" fill="white"/>
<path d="M39.9999 15.1112C39.5555 15.4921 39.1745 15.9366 38.7936 16.381H41.2063C41.5237 16.762 41.8412 17.2064 42.0952 17.6509H37.8412C37.5872 18.0953 37.3333 18.4763 37.1428 18.9207H42.7936C42.984 19.3651 43.1745 19.7461 43.3015 20.1905H36.6983C36.5713 20.635 36.4444 21.0159 36.3174 21.4604H43.6825C43.8729 22.2858 43.9364 23.1112 43.9364 24.0001C43.9364 25.3334 43.7459 26.6032 43.3015 27.8096H36.6983C36.8253 28.254 37.0158 28.635 37.2063 29.0794H42.8571C42.6666 29.5239 42.4126 29.9683 42.1586 30.3493H37.9047C38.1587 30.7937 38.4761 31.2381 38.7936 31.6191H41.2063C40.8253 32.0635 40.4444 32.508 39.9999 32.8889C42.1586 34.7937 44.9523 36 48.0634 36C48.2539 36 48.4444 36 48.6348 36C52.3174 33.3334 54.7301 28.9524 54.7301 24.0636C54.7301 19.1747 52.3174 14.7937 48.6348 12.1271C48.4444 12.1271 48.2539 12.1271 48.0634 12.1271C44.9523 12.0001 42.1586 13.2064 39.9999 15.1112Z" fill="#D1094B"/>
<path d="M30.4764 26.9841H28.9526L29.8415 22.3492L27.8098 26.9841H26.4764L26.2225 22.3492L25.3336 26.9841H24.0002L25.1431 20.8889H27.4923L27.6193 24.6984L29.2701 20.8889H31.6828L30.4764 26.9841Z" fill="white"/>
<path d="M29.0149 24.3175L29.9038 22.3492L29.2054 26.0318C29.2689 26.3492 29.3324 26.7302 29.4594 27.0476H30.4752L31.6181 20.9524H29.3959C29.1419 21.9048 28.9514 22.9841 28.9514 24.0635C29.0149 24.127 29.0149 24.1905 29.0149 24.3175Z" fill="#DCE5E5"/>
<path d="M47.1114 26.9206C46.6669 27.0476 46.413 27.1111 46.032 27.1111C45.2701 27.1111 44.8892 26.7302 44.8892 26.0318C44.8892 25.9048 44.8892 25.7778 44.9527 25.5873L45.0161 25.0794L45.0796 24.6984L45.778 20.9524H47.2384L47.0479 22.0952H47.8098L47.6193 23.2381H46.8574L46.4765 25.2698C46.4765 25.3333 46.413 25.4603 46.413 25.4603C46.413 25.7143 46.6034 25.8413 46.9209 25.8413C47.1114 25.8413 47.2384 25.8413 47.3019 25.7778L47.1114 26.9206Z" fill="#DCE5E5"/>
<path d="M51.4929 22.095C51.3659 22.0315 51.3659 22.0315 51.3024 22.0315C51.2389 22.0315 51.1754 22.0315 51.1754 21.968C51.1119 21.968 51.1119 21.968 50.9849 21.968C50.477 21.968 50.1596 22.1585 49.7151 22.7934L49.8421 22.0315H48.5088L47.6199 26.9839H49.1437C49.6516 23.9363 49.9056 23.4283 50.604 23.4283C50.6675 23.4283 50.731 23.4283 50.7945 23.4283L50.9849 23.4918L51.4929 22.095Z" fill="#DCE5E5"/>
<path d="M41.2064 23.6188C41.2064 24.2537 41.5874 24.6982 42.3493 24.9521C42.9842 25.2061 43.0477 25.2696 43.0477 25.5236C43.0477 25.841 42.7937 25.968 42.1588 25.968C41.7144 25.968 41.2699 25.9045 40.8255 25.7775L40.635 26.9204H40.6985L40.9525 26.9839C41.016 26.9839 41.2064 26.9839 41.3334 26.9839C41.7144 27.0474 41.9683 27.0474 42.1588 27.0474C43.7461 27.0474 44.508 26.5394 44.508 25.3966C44.508 24.6982 44.1906 24.3172 43.4287 23.9998C42.7937 23.7458 42.7302 23.6823 42.7302 23.4918C42.7302 23.2379 42.9842 23.1109 43.4921 23.1109C43.7461 23.1109 44.1906 23.1109 44.5715 23.1744L44.762 22.0315C44.381 21.968 43.8096 21.968 43.4287 21.968C41.7779 21.968 41.2064 22.7299 41.2064 23.6188Z" fill="#DCE5E5"/>
<path d="M35.3025 26.9839H34.0962V26.476C33.7152 26.8569 33.2073 27.0474 32.5089 27.0474C31.6835 27.0474 31.1755 26.476 31.1755 25.7141C31.1755 24.5077 32.1279 23.8093 33.7787 23.8093C33.9692 23.8093 34.1597 23.8093 34.4136 23.8093C34.4771 23.6188 34.4771 23.5553 34.4771 23.4918C34.4771 23.1744 34.2232 23.0474 33.5247 23.0474C33.0803 23.0474 32.6359 23.1109 32.3184 23.1744L32.1279 23.2379H32.0009L32.1914 22.1585C32.9533 21.968 33.3978 21.9045 33.9692 21.9045C35.239 21.9045 35.9374 22.4125 35.9374 23.3649C35.9374 23.6188 35.9374 23.8093 35.8105 24.3807L35.493 26.1585L35.4295 26.476L35.366 26.7299V26.9204L35.3025 26.9839ZM34.2232 24.7617C34.0327 24.7617 33.9692 24.7617 33.9057 24.7617C33.0803 24.7617 32.6359 25.0156 32.6359 25.5236C32.6359 25.841 32.8263 26.0315 33.1438 26.0315C33.7787 26.0315 34.2232 25.5236 34.2232 24.7617Z" fill="#DCE5E5"/>
<path d="M40.1912 26.8569C39.6832 26.9839 39.1753 27.0474 38.6674 27.0474C37.0166 27.0474 36.1277 26.2855 36.1277 24.8252C36.1277 23.1109 37.207 21.9045 38.7309 21.9045C39.9372 21.9045 40.6991 22.603 40.6991 23.6823C40.6991 24.0633 40.6356 24.3807 40.5086 24.8887H37.5245C37.5245 24.9522 37.5245 25.0156 37.5245 25.0791C37.5245 25.6506 37.969 25.968 38.7943 25.968C39.3658 25.968 39.8102 25.9045 40.3182 25.6506L40.1912 26.8569ZM39.4293 23.9363C39.4293 23.8728 39.4293 23.7458 39.4293 23.6823C39.4293 23.3014 39.1753 23.0474 38.7309 23.0474C38.2864 23.0474 37.9055 23.3649 37.7785 23.9363H39.4293Z" fill="#DCE5E5"/>
<path d="M56.1265 24.7619C55.8726 26.4127 54.7297 27.1111 53.2059 27.1111C51.5551 27.1111 50.8567 26.0953 50.8567 24.8254C50.8567 23.1111 51.9995 21.9048 53.7773 21.9048C55.3011 21.9048 56.1265 22.9207 56.1265 24.127C56.1265 24.4445 56.1265 24.4445 56.1265 24.7619ZM54.5392 24.127C54.5392 23.6191 54.3487 23.1746 53.7138 23.1746C52.9519 23.1746 52.5075 24.0635 52.5075 24.8889C52.5075 25.5238 52.8249 25.9683 53.3329 25.9683C53.6503 25.9683 54.3487 25.5238 54.4757 24.7619C54.5392 24.508 54.5392 24.3175 54.5392 24.127Z" fill="white"/>
<path d="M50.9214 25.3969C50.9849 24.9524 51.0484 24.4445 51.0484 24C51.0484 23.9365 51.0484 23.873 51.0484 23.873C50.9849 24.1905 50.9214 24.508 50.9214 24.8889C50.8579 25.0159 50.8579 25.2064 50.9214 25.3969Z" fill="white"/>
<rect x="0.5" y="0.5" width="79" height="47" rx="7.5" stroke="#D8D8D8"/>
</svg>
