<svg width="80" height="48" viewBox="0 0 80 48" fill="none" xmlns="http://www.w3.org/2000/svg">
<path d="M33.3511 31.5812L36.0317 16.5027H40.2202L37.6233 31.5812H33.3511Z" fill="#3C58BF"/>
<path d="M33.3511 31.5812L36.7856 16.5027H40.2202L37.6233 31.5812H33.3511Z" fill="#293688"/>
<path d="M52.7855 16.6702C51.9478 16.3351 50.6075 16 48.9321 16C44.7436 16 41.7279 18.0942 41.7279 21.11C41.7279 23.3717 43.8222 24.5445 45.4976 25.2984C47.173 26.0524 47.6756 26.555 47.6756 27.2251C47.6756 28.2304 46.3353 28.733 45.1625 28.733C43.4871 28.733 42.5656 28.4817 41.1415 27.8953L40.5551 27.644L39.9688 31.0786C40.974 31.4974 42.8169 31.9163 44.7436 31.9163C49.1834 31.9163 52.1154 29.822 52.1154 26.6388C52.1154 24.8796 51.0264 23.5393 48.5133 22.4503C47.0054 21.6963 46.0839 21.2775 46.0839 20.5236C46.0839 19.8534 46.8379 19.1833 48.5133 19.1833C49.9374 19.1833 50.9426 19.4346 51.6965 19.7696L52.1154 19.9372L52.7855 16.6702Z" fill="#3C58BF"/>
<path d="M52.7855 16.6702C51.9478 16.3351 50.6075 16 48.9321 16C44.7436 16 42.4818 18.0942 42.4818 21.11C42.4818 23.3717 43.8222 24.5445 45.4976 25.2984C47.173 26.0524 47.6756 26.555 47.6756 27.2251C47.6756 28.2304 46.3353 28.733 45.1625 28.733C43.4871 28.733 42.5656 28.4817 41.1415 27.8953L40.5551 27.644L39.9688 31.0786C40.974 31.4974 42.8169 31.9163 44.7436 31.9163C49.1834 31.9163 52.1154 29.822 52.1154 26.6388C52.1154 24.8796 51.0264 23.5393 48.5133 22.4503C47.0054 21.6963 46.0839 21.2775 46.0839 20.5236C46.0839 19.8534 46.8379 19.1833 48.5133 19.1833C49.9374 19.1833 50.9426 19.4346 51.6965 19.7696L52.1154 19.9372L52.7855 16.6702Z" fill="#293688"/>
<path d="M59.9886 16.5027C58.9833 16.5027 58.2294 16.5865 57.8106 17.5917L51.5278 31.5812H56.0514L56.8891 29.0682H62.2504L62.753 31.5812H66.7739L63.2556 16.5027H59.9886ZM58.0619 26.5551C58.3132 25.8011 59.7373 22.1153 59.7373 22.1153C59.7373 22.1153 60.0723 21.1938 60.3237 20.6074L60.575 22.0315C60.575 22.0315 61.4127 25.8011 61.5802 26.6388H58.0619V26.5551Z" fill="#3C58BF"/>
<path d="M60.9938 16.5027C59.9886 16.5027 59.2347 16.5865 58.8158 17.5917L51.5278 31.5812H56.0514L56.8891 29.0682H62.2504L62.753 31.5812H66.7739L63.2556 16.5027H60.9938ZM58.0619 26.5551C58.397 25.7174 59.7373 22.1153 59.7373 22.1153C59.7373 22.1153 60.0723 21.1938 60.3237 20.6074L60.575 22.0315C60.575 22.0315 61.4127 25.8011 61.5802 26.6388H58.0619V26.5551Z" fill="#293688"/>
<path d="M25.6438 27.0576L25.225 24.8796C24.471 22.3665 22.0417 19.6021 19.3611 18.2618L23.1307 31.665H27.6543L34.4396 16.5864H29.9161L25.6438 27.0576Z" fill="#3C58BF"/>
<path d="M25.6438 27.0576L25.225 24.8796C24.471 22.3665 22.0417 19.6021 19.3611 18.2618L23.1307 31.665H27.6543L34.4396 16.5864H30.7538L25.6438 27.0576Z" fill="#293688"/>
<path d="M14 16.5027L14.7539 16.6702C20.1152 17.9268 23.8011 21.11 25.2252 24.8797L23.7173 17.7592C23.466 16.754 22.7121 16.5027 21.7906 16.5027H14Z" fill="#FFBC00"/>
<path d="M14 16.5027C19.3613 17.7592 23.8011 21.0263 25.2252 24.7959L23.8011 18.8482C23.5498 17.843 22.7121 17.2566 21.7906 17.2566L14 16.5027Z" fill="#F7981D"/>
<path d="M14 16.5027C19.3613 17.7592 23.8011 21.0263 25.2252 24.7959L24.2199 21.5289C23.9686 20.5236 23.6335 19.5184 22.4607 19.0995L14 16.5027Z" fill="#ED7C00"/>
<path d="M29.8323 26.555L26.9841 23.7068L25.6438 26.89L25.3087 24.7958C24.5548 22.2827 22.1255 19.5183 19.4448 18.178L23.2145 31.5811H27.738L29.8323 26.555Z" fill="#051244"/>
<path d="M37.6228 31.5811L34.0207 27.8953L33.3506 31.5811H37.6228Z" fill="#051244"/>
<path d="M47.2562 26.3875C47.5913 26.7225 47.7589 26.9738 47.6751 27.3089C47.6751 28.3142 46.3348 28.8168 45.162 28.8168C43.4866 28.8168 42.5651 28.5655 41.141 27.9791L40.5547 27.7278L39.9683 31.1623C40.9735 31.5812 42.8164 32 44.7431 32C47.4238 32 49.6018 31.2461 50.8583 29.9058L47.2562 26.3875Z" fill="#051244"/>
<path d="M52.1145 31.5813H56.0517L56.8894 29.0682H62.2506L62.7533 31.5813H66.7742L65.3501 25.4661L60.3239 20.6074L60.5752 21.9477C60.5752 21.9477 61.4129 25.7174 61.5805 26.5551H58.0622C58.3972 25.7174 59.7376 22.1153 59.7376 22.1153C59.7376 22.1153 60.0726 21.1938 60.3239 20.6074" fill="#051244"/>
<rect x="0.5" y="0.5" width="79" height="47" rx="7.5" stroke="#D8D8D8"/>
</svg>
